<svg width="24" height="24" viewBox="0 0 32 32" fill="#835afd" xmlns="http://www.w3.org/2000/svg">
<path d="M16 0C11.7565 -5.06028e-08 7.68687 1.68571 4.68629 4.68629C1.68571 7.68687 8.76836e-07 11.7565 0 16C-8.76835e-07 20.2435 1.68571 24.3131 4.68629 27.3137C7.68687 30.3143 11.7565 32 16 32L16 16L16 0Z" fill="#835afd"/>
<path d="M16 0C18.1012 2.5056e-08 20.1817 0.413852 22.1229 1.21793C24.0641 2.022 25.828 3.20055 27.3137 4.68629C28.7994 6.17203 29.978 7.93586 30.7821 9.87707C31.5861 11.8183 32 13.8989 32 16C32 18.1012 31.5861 20.1817 30.7821 22.1229C29.978 24.0641 28.7994 25.828 27.3137 27.3137C25.828 28.7994 24.0641 29.978 22.1229 30.7821C20.1817 31.5861 18.1011 32 16 32L16 29.6C17.786 29.6 19.5545 29.2482 21.2045 28.5648C22.8545 27.8813 24.3538 26.8795 25.6167 25.6167C26.8795 24.3538 27.8813 22.8545 28.5648 21.2045C29.2482 19.5545 29.6 17.786 29.6 16C29.6 14.214 29.2482 12.4455 28.5648 10.7955C27.8813 9.14548 26.8795 7.64623 25.6167 6.38335C24.3538 5.12047 22.8545 4.1187 21.2045 3.43524C19.5545 2.75177 17.786 2.4 16 2.4L16 0Z" fill="#835afd"/>
</svg>
