<svg width="24" height="24" viewBox="0 0 32 32" fill="#1c0f44" xmlns="http://www.w3.org/2000/svg">
<path d="M16 0C11.7565 -5.06028e-08 7.68687 1.68571 4.68629 4.68629C1.68571 7.68687 8.76836e-07 11.7565 0 16C-8.76835e-07 20.2435 1.68571 24.3131 4.68629 27.3137C7.68687 30.3143 11.7565 32 16 32L16 29.6037C12.3921 29.6037 8.9319 28.1705 6.38071 25.6193C3.82951 23.0681 2.39627 19.6079 2.39627 16C2.39627 12.3921 3.82952 8.9319 6.38071 6.38071C8.93191 3.82952 12.3921 2.39627 16 2.39627L16 0Z" fill="white"/>
<path d="M16 0C18.1012 2.5056e-08 20.1817 0.413852 22.1229 1.21793C24.0641 2.022 25.828 3.20055 27.3137 4.68629C28.7994 6.17203 29.978 7.93586 30.7821 9.87707C31.5861 11.8183 32 13.8989 32 16C32 18.1012 31.5861 20.1817 30.7821 22.1229C29.978 24.0641 28.7994 25.828 27.3137 27.3137C25.828 28.7994 24.0641 29.978 22.1229 30.7821C20.1817 31.5861 18.1011 32 16 32L16 16L16 0Z" fill="white"/>
</svg>
